# xmcd
#
# Track frame offsets: 
#        150
#        18708
#        32290
#        46145
#        60564
#
# Disc length: 1125 seconds
#
# Revision: 0
# Processed by: cddbd v1.5.2PL0 Copyright (c) Steve Scherf et al.
# Submitted via: ExactAudioCopy v0.99pb4
#
DISCID=33046305
DTITLE=The Pipettes - Stop the Music EP
DYEAR=2010
DGENRE=Indie-Pop
TTITLE0=Stop the Music
TTITLE1=So I'll Say Goodbye
TTITLE2=Our Love Was Saved by Spacemen
TTITLE3=Who Made You the Doctor?
TTITLE4=Stop the Music (Justus Köhncke, Kompakt Remix)
EXTD=
EXTT0=
EXTT1=
EXTT2=
EXTT3=
EXTT4=
PLAYORDER=
